<mxfile host="app.diagrams.net" agent="Mozilla/5.0 (Windows NT 10.0; Win64; x64) AppleWebKit/537.36 (KHTML, like Gecko) Chrome/135.0.0.0 Safari/537.36 Edg/135.0.0.0" version="26.2.12">
  <diagram name="Page-1" id="qdjDxC5eTGOGvWHiCtnx">
    <mxGraphModel dx="2433" dy="979" grid="1" gridSize="10" guides="1" tooltips="1" connect="1" arrows="1" fold="1" page="1" pageScale="1" pageWidth="1169" pageHeight="1654" math="0" shadow="0">
      <root>
        <mxCell id="0" />
        <mxCell id="1" parent="0" />
        <mxCell id="Grs2aiCkaxN1rQ-u349l-42" value="" style="rounded=0;whiteSpace=wrap;html=1;fillColor=#fad7ac;strokeColor=#b46504;" vertex="1" parent="1">
          <mxGeometry x="750" y="770" width="390" height="480" as="geometry" />
        </mxCell>
        <mxCell id="Grs2aiCkaxN1rQ-u349l-39" value="" style="rounded=0;whiteSpace=wrap;html=1;fillColor=#bac8d3;strokeColor=#23445d;" vertex="1" parent="1">
          <mxGeometry x="750" y="110" width="390" height="660" as="geometry" />
        </mxCell>
        <mxCell id="2" value="Develop Minimal API on Local PC" style="whiteSpace=wrap;strokeWidth=2;" parent="1" vertex="1">
          <mxGeometry x="820" y="120" width="260" height="78" as="geometry" />
        </mxCell>
        <mxCell id="3" value="Create Dockerfile" style="whiteSpace=wrap;strokeWidth=2;" parent="1" vertex="1">
          <mxGeometry x="857" y="248" width="186" height="54" as="geometry" />
        </mxCell>
        <mxCell id="4" value="Build Docker Image" style="whiteSpace=wrap;strokeWidth=2;" parent="1" vertex="1">
          <mxGeometry x="851" y="352" width="198" height="54" as="geometry" />
        </mxCell>
        <mxCell id="5" value="Run Docker Image Locally" style="whiteSpace=wrap;strokeWidth=2;" parent="1" vertex="1">
          <mxGeometry x="828" y="456" width="243" height="54" as="geometry" />
        </mxCell>
        <mxCell id="6" value="Test API Locally" style="whiteSpace=wrap;strokeWidth=2;" parent="1" vertex="1">
          <mxGeometry x="865" y="560" width="171" height="54" as="geometry" />
        </mxCell>
        <mxCell id="7" value="Upload Docker Image to Ubuntu Server" style="whiteSpace=wrap;strokeWidth=2;" parent="1" vertex="1">
          <mxGeometry x="820" y="664" width="260" height="78" as="geometry" />
        </mxCell>
        <mxCell id="8" value="Set Up Docker on Ubuntu Server" style="whiteSpace=wrap;strokeWidth=2;" parent="1" vertex="1">
          <mxGeometry x="820" y="792" width="260" height="78" as="geometry" />
        </mxCell>
        <mxCell id="9" value="Load and run Docker Image on Ubuntu Server" style="whiteSpace=wrap;strokeWidth=2;" parent="1" vertex="1">
          <mxGeometry x="820" y="920" width="260" height="78" as="geometry" />
        </mxCell>
        <mxCell id="Grs2aiCkaxN1rQ-u349l-43" style="edgeStyle=orthogonalEdgeStyle;rounded=0;orthogonalLoop=1;jettySize=auto;html=1;exitX=0.5;exitY=1;exitDx=0;exitDy=0;entryX=0.5;entryY=0;entryDx=0;entryDy=0;" edge="1" parent="1" source="10" target="12">
          <mxGeometry relative="1" as="geometry" />
        </mxCell>
        <mxCell id="10" value="Test API on Ubuntu Server" style="whiteSpace=wrap;strokeWidth=2;" parent="1" vertex="1">
          <mxGeometry x="828" y="1048" width="245" height="54" as="geometry" />
        </mxCell>
        <mxCell id="12" value="Access API from Local Machine" style="whiteSpace=wrap;strokeWidth=2;" parent="1" vertex="1">
          <mxGeometry x="820.5" y="1150" width="260" height="78" as="geometry" />
        </mxCell>
        <mxCell id="13" value="" style="curved=1;startArrow=none;endArrow=block;exitX=0.5;exitY=1;entryX=0.5;entryY=0;" parent="1" source="2" target="3" edge="1">
          <mxGeometry relative="1" as="geometry">
            <Array as="points" />
          </mxGeometry>
        </mxCell>
        <mxCell id="14" value="" style="curved=1;startArrow=none;endArrow=block;exitX=0.5;exitY=1;entryX=0.5;entryY=0;" parent="1" source="3" target="4" edge="1">
          <mxGeometry relative="1" as="geometry">
            <Array as="points" />
          </mxGeometry>
        </mxCell>
        <mxCell id="15" value="" style="curved=1;startArrow=none;endArrow=block;exitX=0.5;exitY=1;entryX=0.5;entryY=0;" parent="1" source="4" target="5" edge="1">
          <mxGeometry relative="1" as="geometry">
            <Array as="points" />
          </mxGeometry>
        </mxCell>
        <mxCell id="16" value="" style="curved=1;startArrow=none;endArrow=block;exitX=0.5;exitY=1;entryX=0.5;entryY=0;" parent="1" source="5" target="6" edge="1">
          <mxGeometry relative="1" as="geometry">
            <Array as="points" />
          </mxGeometry>
        </mxCell>
        <mxCell id="17" value="" style="curved=1;startArrow=none;endArrow=block;exitX=0.5;exitY=1;entryX=0.5;entryY=0;" parent="1" source="6" target="7" edge="1">
          <mxGeometry relative="1" as="geometry">
            <Array as="points" />
          </mxGeometry>
        </mxCell>
        <mxCell id="18" value="" style="curved=1;startArrow=none;endArrow=block;exitX=0.5;exitY=1;entryX=0.5;entryY=0;" parent="1" source="7" target="8" edge="1">
          <mxGeometry relative="1" as="geometry">
            <Array as="points" />
          </mxGeometry>
        </mxCell>
        <mxCell id="19" value="" style="curved=1;startArrow=none;endArrow=block;exitX=0.5;exitY=1;entryX=0.5;entryY=0;" parent="1" source="8" target="9" edge="1">
          <mxGeometry relative="1" as="geometry">
            <Array as="points" />
          </mxGeometry>
        </mxCell>
        <mxCell id="20" value="" style="curved=1;startArrow=none;endArrow=block;exitX=0.5;exitY=1;entryX=0.5;entryY=0;" parent="1" source="9" target="10" edge="1">
          <mxGeometry relative="1" as="geometry">
            <Array as="points" />
          </mxGeometry>
        </mxCell>
        <mxCell id="Grs2aiCkaxN1rQ-u349l-22" value="Workflow" style="text;html=1;align=center;verticalAlign=middle;whiteSpace=wrap;rounded=0;fontStyle=1;fontSize=30;" vertex="1" parent="1">
          <mxGeometry x="820" y="50" width="280" height="30" as="geometry" />
        </mxCell>
        <mxCell id="Grs2aiCkaxN1rQ-u349l-23" value="Architecture" style="text;html=1;align=center;verticalAlign=middle;whiteSpace=wrap;rounded=0;fontStyle=1;fontSize=30;" vertex="1" parent="1">
          <mxGeometry x="260" y="60" width="280" height="30" as="geometry" />
        </mxCell>
        <mxCell id="Grs2aiCkaxN1rQ-u349l-40" value="" style="group" vertex="1" connectable="0" parent="1">
          <mxGeometry x="90" y="110" width="640" height="420" as="geometry" />
        </mxCell>
        <mxCell id="Grs2aiCkaxN1rQ-u349l-24" value="" style="rounded=0;whiteSpace=wrap;html=1;fillColor=#bac8d3;strokeColor=#23445d;" vertex="1" parent="Grs2aiCkaxN1rQ-u349l-40">
          <mxGeometry width="640" height="420" as="geometry" />
        </mxCell>
        <mxCell id="Grs2aiCkaxN1rQ-u349l-25" value="HOST Windows 11 Pro" style="text;html=1;align=center;verticalAlign=middle;whiteSpace=wrap;rounded=0;fontStyle=1;fontSize=14;" vertex="1" parent="Grs2aiCkaxN1rQ-u349l-40">
          <mxGeometry x="240" y="30" width="190" height="30" as="geometry" />
        </mxCell>
        <mxCell id="Grs2aiCkaxN1rQ-u349l-26" value="" style="rounded=0;whiteSpace=wrap;html=1;fillColor=#e1d5e7;strokeColor=#9673a6;" vertex="1" parent="Grs2aiCkaxN1rQ-u349l-40">
          <mxGeometry x="360" y="100" width="250" height="280" as="geometry" />
        </mxCell>
        <mxCell id="Grs2aiCkaxN1rQ-u349l-27" value="VM Ware Workstation" style="text;html=1;align=center;verticalAlign=middle;whiteSpace=wrap;rounded=0;fontStyle=1" vertex="1" parent="Grs2aiCkaxN1rQ-u349l-40">
          <mxGeometry x="416" y="110" width="156" height="30" as="geometry" />
        </mxCell>
        <mxCell id="Grs2aiCkaxN1rQ-u349l-28" value="" style="rounded=0;whiteSpace=wrap;html=1;fillColor=#ffe6cc;strokeColor=#d79b00;" vertex="1" parent="Grs2aiCkaxN1rQ-u349l-40">
          <mxGeometry x="380" y="160" width="210" height="200" as="geometry" />
        </mxCell>
        <mxCell id="Grs2aiCkaxN1rQ-u349l-29" value="Ubuntu server on VM" style="text;html=1;align=center;verticalAlign=middle;whiteSpace=wrap;rounded=0;fontStyle=1" vertex="1" parent="Grs2aiCkaxN1rQ-u349l-40">
          <mxGeometry x="407" y="170" width="156" height="30" as="geometry" />
        </mxCell>
        <mxCell id="Grs2aiCkaxN1rQ-u349l-32" value="" style="rounded=0;whiteSpace=wrap;html=1;fillColor=#dae8fc;strokeColor=#6c8ebf;" vertex="1" parent="Grs2aiCkaxN1rQ-u349l-40">
          <mxGeometry x="395" y="210" width="180" height="130" as="geometry" />
        </mxCell>
        <mxCell id="Grs2aiCkaxN1rQ-u349l-31" value="" style="shape=image;verticalLabelPosition=bottom;labelBackgroundColor=default;verticalAlign=top;aspect=fixed;imageAspect=0;image=https://logos-world.net/wp-content/uploads/2021/02/Docker-Emblem.png;" vertex="1" parent="Grs2aiCkaxN1rQ-u349l-40">
          <mxGeometry x="507.44000000000005" y="223.25" width="59.56" height="33.5" as="geometry" />
        </mxCell>
        <mxCell id="Grs2aiCkaxN1rQ-u349l-33" value="Minimal API docker image&lt;div&gt;.net 9&lt;/div&gt;" style="rounded=0;whiteSpace=wrap;html=1;fillColor=#1ba1e2;fontColor=#ffffff;strokeColor=#006EAF;" vertex="1" parent="Grs2aiCkaxN1rQ-u349l-40">
          <mxGeometry x="407" y="270" width="153" height="50" as="geometry" />
        </mxCell>
        <mxCell id="Grs2aiCkaxN1rQ-u349l-34" value="" style="rounded=0;whiteSpace=wrap;html=1;fillColor=#b1ddf0;strokeColor=#10739e;" vertex="1" parent="Grs2aiCkaxN1rQ-u349l-40">
          <mxGeometry x="30" y="100" width="300" height="130" as="geometry" />
        </mxCell>
        <mxCell id="Grs2aiCkaxN1rQ-u349l-36" value=".net 9 SDK" style="text;html=1;align=center;verticalAlign=middle;whiteSpace=wrap;rounded=0;fontStyle=1" vertex="1" parent="Grs2aiCkaxN1rQ-u349l-40">
          <mxGeometry x="102" y="110" width="156" height="30" as="geometry" />
        </mxCell>
        <mxCell id="Grs2aiCkaxN1rQ-u349l-37" value="ASP.NET core Minimal API" style="rounded=0;whiteSpace=wrap;html=1;fillColor=#1ba1e2;strokeColor=#006EAF;fontColor=#ffffff;" vertex="1" parent="Grs2aiCkaxN1rQ-u349l-40">
          <mxGeometry x="50" y="150" width="260" height="50" as="geometry" />
        </mxCell>
        <mxCell id="Grs2aiCkaxN1rQ-u349l-38" value="" style="shape=image;verticalLabelPosition=bottom;labelBackgroundColor=default;verticalAlign=top;aspect=fixed;imageAspect=0;image=https://logos-world.net/wp-content/uploads/2021/02/Docker-Emblem.png;" vertex="1" parent="Grs2aiCkaxN1rQ-u349l-40">
          <mxGeometry x="30" y="243.25" width="100.9" height="56.75" as="geometry" />
        </mxCell>
        <mxCell id="Grs2aiCkaxN1rQ-u349l-41" value="HOST Windows 11 Pro" style="text;html=1;align=center;verticalAlign=middle;whiteSpace=wrap;rounded=0;fontStyle=1;fontSize=14;rotation=-90;" vertex="1" parent="1">
          <mxGeometry x="690" y="440" width="190" height="30" as="geometry" />
        </mxCell>
      </root>
    </mxGraphModel>
  </diagram>
</mxfile>
